<svg width="1200" height="280" viewBox="0 0 1200 280" xmlns="http://www.w3.org/2000/svg">
  <defs>
    <linearGradient id="bg" x1="0%" y1="0%" x2="100%" y2="100%">
      <stop offset="0%" stop-color="#050810"/>
      <stop offset="50%" stop-color="#081428"/>
      <stop offset="100%" stop-color="#050810"/>
    </linearGradient>
    <radialGradient id="orb1" cx="20%" cy="60%" r="35%">
      <stop offset="0%" stop-color="#00d4ff" stop-opacity="0.15"/>
      <stop offset="100%" stop-color="#00d4ff" stop-opacity="0"/>
    </radialGradient>
    <radialGradient id="orb2" cx="82%" cy="45%" r="30%">
      <stop offset="0%" stop-color="#7c3aed" stop-opacity="0.12"/>
      <stop offset="100%" stop-color="#7c3aed" stop-opacity="0"/>
    </radialGradient>
  </defs>
  <rect width="1200" height="280" fill="url(#bg)" rx="12"/>
  <rect width="1200" height="280" fill="url(#orb1)" rx="12"/>
  <rect width="1200" height="280" fill="url(#orb2)" rx="12"/>
  <line x1="0" y1="56" x2="1200" y2="56" stroke="#00d4ff" stroke-opacity="0.06" stroke-width="0.5"/>
  <line x1="0" y1="112" x2="1200" y2="112" stroke="#00d4ff" stroke-opacity="0.04" stroke-width="0.5"/>
  <line x1="0" y1="168" x2="1200" y2="168" stroke="#00d4ff" stroke-opacity="0.04" stroke-width="0.5"/>
  <line x1="0" y1="224" x2="1200" y2="224" stroke="#00d4ff" stroke-opacity="0.06" stroke-width="0.5"/>
  <line x1="120" y1="0" x2="120" y2="280" stroke="#00d4ff" stroke-opacity="0.04" stroke-width="0.5"/>
  <line x1="1080" y1="0" x2="1080" y2="280" stroke="#00d4ff" stroke-opacity="0.04" stroke-width="0.5"/>
  <polyline points="60,56 60,112 120,112 120,168 60,168 60,224" fill="none" stroke="#00d4ff" stroke-opacity="0.3" stroke-width="1"/>
  <circle cx="60" cy="56" r="4" fill="#00d4ff" fill-opacity="0.6"/>
  <circle cx="120" cy="112" r="3" fill="#00d4ff" fill-opacity="0.4"/>
  <circle cx="120" cy="168" r="3" fill="#00d4ff" fill-opacity="0.4"/>
  <circle cx="60" cy="224" r="4" fill="#00d4ff" fill-opacity="0.6"/>
  <polyline points="1140,56 1140,112 1080,112 1080,168 1140,168 1140,224" fill="none" stroke="#7c3aed" stroke-opacity="0.3" stroke-width="1"/>
  <circle cx="1140" cy="56" r="4" fill="#7c3aed" fill-opacity="0.6"/>
  <circle cx="1140" cy="224" r="4" fill="#7c3aed" fill-opacity="0.6"/>
  <line x1="300" y1="160" x2="600" y2="160" stroke="#00d4ff" stroke-opacity="0.12" stroke-width="0.6"/>
  <line x1="600" y1="160" x2="900" y2="160" stroke="#7c3aed" stroke-opacity="0.10" stroke-width="0.6"/>
  <text x="600" y="100" font-family="'Segoe UI', Arial, sans-serif" font-size="52" font-weight="700" fill="#ffffff" text-anchor="middle" letter-spacing="4" opacity="0.95">SHASHANK SAKRAPPA HAKARI</text>
  <line x1="280" y1="116" x2="920" y2="116" stroke="#00d4ff" stroke-opacity="0.45" stroke-width="0.8"/>
  <text x="600" y="152" font-family="'Segoe UI', Arial, sans-serif" font-size="20" font-weight="400" fill="#00d4ff" text-anchor="middle" letter-spacing="6">EMBEDDED SOFTWARE ENGINEER</text>
  <line x1="360" y1="164" x2="840" y2="164" stroke="#00d4ff" stroke-opacity="0.18" stroke-width="0.5"/>
  <text x="600" y="196" font-family="'Segoe UI', Arial, sans-serif" font-size="14" fill="#8892a4" text-anchor="middle" letter-spacing="2">Northeastern University  ·  GPA 3.89  ·  Boston, MA  ·  Available 2026</text>
  <text x="600" y="228" font-family="'Segoe UI', Arial, sans-serif" font-size="12" fill="#4a5268" text-anchor="middle" letter-spacing="2">ARM Cortex-M4  ·  FreeRTOS  ·  C / C++ / Python / Java  ·  AWS  ·  Terraform</text>
  <rect width="1200" height="280" fill="none" stroke="#00d4ff" stroke-opacity="0.1" stroke-width="1" rx="12"/>
</svg>
